<?xml version="1.0" encoding="UTF-8"?>
<svg width="360px" height="360px" viewBox="0 0 360 360" version="1.1" xmlns="http://www.w3.org/2000/svg" xmlns:xlink="http://www.w3.org/1999/xlink">
    <defs>
        <rect id="path-1" x="34" y="60" width="292" height="243"></rect>
        <linearGradient x1="1.46519167%" y1="98.5355639%" x2="98.536275%" y2="1.46446944%" id="linearGradient-2">
            <stop stop-color="#0065FE" offset="0%"></stop>
            <stop stop-color="#0C75FC" offset="24.14%"></stop>
            <stop stop-color="#2A9DF8" offset="70.86%"></stop>
            <stop stop-color="#3FBAF5" offset="100%"></stop>
        </linearGradient>
    </defs>
    <g id="Page-1" stroke="none" stroke-width="1" fill="none" fill-rule="evenodd">
        <g id="logo">
            <g id="Rectangle">
                <use fill="#FFFFFF" fill-rule="evenodd" xlink:href="#path-1"></use>
                <rect stroke="#979797" stroke-width="1" x="34.5" y="60.5" width="291" height="242"></rect>
            </g>
            <path d="M176.72,147.24 C179.06,149.58 179.06,153.38 176.72,155.73 L128.72,203.73 C124.94,207.51 118.47,204.83 118.47,199.49 L118.47,103.5 C118.47,98.15 124.94,95.47 128.72,99.26 L176.72,147.24 Z M360,18 L360,342 C360,351.94 351.94,360 342,360 L18,360 C8.06,360 0,351.94 0,342 L0,18 C0,8.06 8.06,0 18,0 L342,0 C351.94,0 360,8.06 360,18 Z M296.49,142.7 L246.01,92.22 C243.76,89.97 240.7,88.7 237.52,88.7 L122.49,88.7 C119.31,88.7 116.25,89.96 114,92.22 L63.52,142.68 C58.83,147.37 58.83,154.97 63.52,159.66 L171.51,267.67 C176.2,272.36 183.8,272.36 188.49,267.67 L296.48,159.68 C301.18,154.99 301.18,147.39 296.49,142.7 Z" id="path13" fill="url(#linearGradient-2)" fill-rule="nonzero"></path>
        </g>
    </g>
</svg>